#!OML:ASF F:\VICON\USERDATA\INSTALL\rory3\rory3.ASF
:FULLY-SPECIFIED
:DEGREES
274
root 0.0216678 17.2183 -15.5847 81.9568 -32.7037 -407.748
lowerback 11.2311 1.28902 -0.645772
upperback -1.69728 1.52622 -1.16649
thorax -8.10307 0.737062 -1.14773
lowerneck -23.14 -4.43058 -6.95542
upperneck 9.32322 -7.87195 22.6521
head 8.11514 -2.14648 7.80786
rclavicle -2.54444e-014 1.59028e-014
rhumerus -14.1749 -11.2319 -29.6396
rradius 45.6323
rwrist -3.89328
rhand -27.7676 -63.8414
rfingers 7.12502
rthumb -1.16144 93.8179
lclavicle -2.54444e-014 1.59028e-014
lhumerus -15.1106 -4.54464 50.3092
lradius 52.766
lwrist 19.1766
lhand -39.3874 326.382
lfingers 7.12502
lthumb -12.3772 -4.00402
rfemur -44.0343 -4.73257 39.0591
rtibia 33.5835
rfoot 11.0344 -7.6436
rtoes -15.5224
lfemur -71.0568 15.7283 7.68899
ltibia 50.1114
lfoot -30.909 37.3306
ltoes 24.5391
275
root 0.00717897 17.2262 -15.6804 82.9773 -33.7379 -408.879
lowerback 10.4511 1.72169 -0.991297
upperback -2.0052 2.08595 -0.950977
thorax -7.99944 1.03372 -0.806411
lowerneck -23.063 -4.73704 -6.71244
upperneck 9.68328 -8.40508 22.3887
head 8.27838 -2.39634 7.59371
rclavicle 1.90833e-014 1.59028e-014
rhumerus -15.2065 -11.2278 -31.1133
rradius 46.3398
rwrist -3.88575
rhand -26.6178 -63.054
rfingers 7.12502
rthumb -0.0508991 93.0337
lclavicle 1.90833e-014 1.59028e-014
lhumerus -15.2416 -6.06245 51.1138
lradius 53.373
lwrist 19.6808
lhand -40.4157 324.747
lfingers 7.12502
lthumb -13.3684 -5.70156
rfemur -44.5597 -2.5902 38.04
rtibia 33.9097
rfoot 9.94605 -10.4935
rtoes -3.40829
lfemur -70.7088 16.9207 7.19058
ltibia 50.1059
lfoot -30.5489 36.9953
ltoes 21.7599
276
root -0.00744275 17.2396 -15.736 83.0186 -34.9011 -409.858
lowerback 10.4646 1.74468 -1.16816
upperback -1.89334 2.11616 -0.670599
thorax -7.90439 1.06406 -0.41361
lowerneck -22.6321 -4.63323 -6.73789
upperneck 9.46649 -8.20007 22.2792
head 8.09047 -2.34803 7.57814
rclavicle -1.11319e-013 2.22639e-014
rhumerus -15.1432 -10.4956 -33.1939
rradius 45.6832
rwrist -1.92237
rhand -29.5831 -62.6719
rfingers 7.12502
rthumb -2.91487 92.6317
lclavicle -1.11319e-013 2.22639e-014
lhumerus -15.8309 -6.00227 51.6324
lradius 54.2147
lwrist 19.1427
lhand -41.1679 323.484
lfingers 7.12502
lthumb -14.0934 -7.0143
rfemur -44.3274 -1.79228 37.3417
rtibia 34.1312
rfoot 9.81848 -11.5849
rtoes 1.19098
lfemur -69.3381 16.9439 7.1789
ltibia 50.2005
lfoot -30.2715 37.4854
ltoes 13.619
277
root -0.0149773 17.2654 -15.7906 83.9273 -35.7777 -410.688
lowerback 9.54285 1.51729 -0.422828
upperback -2.02871 1.90931 -0.846619
thorax -7.4863 0.929025 -0.956497
lowerneck -24.2599 -4.66325 -5.88588
upperneck 11.661 -8.80499 21.641
head 9.1233 -2.42951 7.18938
rclavicle 8.26944e-014 2.54444e-014
rhumerus -15.2812 -9.80023 -36.1233
rradius 45.8294
rwrist -1.23527
rhand -30.4437 -63.2555
rfingers 7.12502
rthumb -3.74592 93.2023
lclavicle 8.26944e-014 2.54444e-014
lhumerus -16.1947 -5.23755 51.2917
lradius 55.3971
lwrist 19.5751
lhand -39.0452 323.806
lfingers 7.12502
lthumb -12.0473 -6.56035
rfemur -45.4048 -1.73769 37.7161
rtibia 34.4243
rfoot 11.9416 -9.39045
rtoes -8.78567
lfemur -69.187 17.3319 7.39714
ltibia 50.2631
lfoot -28.1804 38.6217
ltoes 14.2241
278
root -0.0339713 17.292 -15.8413 84.1407 -36.8024 -411.759
lowerback 9.619 1.46897 -0.825351
upperback -2.02732 1.83202 -0.355121
thorax -7.55894 0.921722 -0.202849
lowerneck -23.8759 -4.4571 -5.86489
upperneck 11.5539 -8.45358 21.3924
head 8.94256 -2.31349 7.1431
rclavicle 3.18055e-015 6.36111e-014
rhumerus -15.1008 -8.90086 -38.0963
rradius 46.663
rwrist -2.62781
rhand -28.0016 -62.953
rfingers 7.12502
rthumb -1.38746 92.9282
lclavicle 3.18055e-015 6.36111e-014
lhumerus -17.0803 -5.19825 51.9229
lradius 55.8242
lwrist 18.2901
lhand -41.1416 322.595
lfingers 7.12502
lthumb -14.0681 -7.90112
rfemur -45.0357 -0.511376 36.9346
rtibia 34.6381
rfoot 10.339 -11.1563
rtoes -2.7181
lfemur -68.043 17.6967 7.48925
ltibia 50.3561
lfoot -29.6072 37.9984
ltoes 17.5745
279
root -0.0240051 17.3027 -15.8546 83.2686 -38.2663 -411.569
lowerback 10.2301 0.913516 -0.626079
upperback -1.92894 1.11548 -0.275408
thorax -7.79833 0.564306 -0.125524
lowerneck -23.6247 -4.2936 -6.20403
upperneck 11.7835 -8.19111 21.5288
head 8.95608 -2.19765 7.30527
rclavicle -2.54444e-014 8.90555e-014
rhumerus -14.8017 -7.36458 -40.4567
rradius 46.2964
rwrist -1.75963
rhand -29.1884 -62.8671
rfingers 7.12502
rthumb -2.53368 92.8318
lclavicle -2.54444e-014 8.90555e-014
lhumerus -17.9022 -4.35953 52.0321
lradius 56.4155
lwrist 17.691
lhand -41.19 322.69
lfingers 7.12502
lthumb -14.1148 -7.80984
rfemur -44.9495 -1.58522 36.2359
rtibia 34.9021
rfoot 10.2172 -9.83523
rtoes -6.95792
lfemur -66.9909 16.7211 6.60736
ltibia 50.4114
lfoot -29.4267 38.4231
ltoes 16.0843
280
root -0.0358613 17.3146 -15.9156 83.605 -39.8628 -412.341
lowerback 9.98859 1.0763 -0.897457
upperback -1.97092 1.28551 -0.46155
thorax -7.7071 0.654843 -0.193577
lowerneck -23.4248 -4.5176 -5.9971
upperneck 11.9565 -8.59703 21.4244
head 9.02736 -2.39297 7.1666
rclavicle 7.95139e-014 4.45278e-014
rhumerus -15.7643 -7.07755 -42.4553
rradius 47.2226
rwrist -3.40942
rhand -26.1846 -62.5701
rfingers 7.12502
rthumb 0.367493 92.5495
lclavicle 7.95139e-014 4.45278e-014
lhumerus -17.6209 -4.44324 52.1595
lradius 56.97
lwrist 17.4032
lhand -40.1119 323.225
lfingers 7.12502
lthumb -13.0757 -7.20509
rfemur -45.3589 -1.55316 35.6001
rtibia 35.2014
rfoot 8.98135 -9.57848
rtoes -6.01838
lfemur -66.2349 17.1607 5.55195
ltibia 50.47
lfoot -28.5572 38.8303
ltoes 15.3332
